<?xml version="1.0" encoding="iso-8859-1"?>
<!-- Generator: Adobe Illustrator 16.0.0, SVG Export Plug-In . SVG Version: 6.00 Build 0)  -->
<!DOCTYPE svg PUBLIC "-//W3C//DTD SVG 1.1//EN" "http://www.w3.org/Graphics/SVG/1.1/DTD/svg11.dtd">
<svg version="1.1" id="&#x56FE;&#x5C42;_1" xmlns="http://www.w3.org/2000/svg" xmlns:xlink="http://www.w3.org/1999/xlink" x="0px"
	 y="0px" width="492.173px" height="187.051px" viewBox="0 0 492.173 187.051" style="enable-background:new 0 0 492.173 187.051;"
	 xml:space="preserve">
<path d="M77.661,70.723l-0.332-1.681l2.692-0.838l0.073-7.112l-2.581-0.742l0.294-1.679l2.324,0.69l0.11-12.693l15.523,1.087
	l-0.074,1.728l-14.196-0.987l-0.295,32.894l-1.29-0.05l0.11-11.358L77.661,70.723z M95.139,81.935l-6.489-4.248l-3.724,4.396
	l-0.849-1.284l3.356-3.952l-3.429-2.272l0.553-1.53l3.908,2.568l3.54-4.198l-8.296-0.1v-1.729l4.609,0.05v-2.618h-5.494V52.448
	l3.503-0.791l0.221,1.729l-2.434,0.494v5.235l2.839-0.098l0.037,1.728l-2.876,0.099v4.446h4.203V50.571h1.291V65.29h4.313
	l0.037-4.446h-2.95v-1.729h2.987l0.037-5.136l-3.171-0.594l0.185-1.729l4.277,0.84l-0.11,14.521h-5.604v2.618l5.788,0.051
	l-5.678,6.766l6.01,3.951L95.139,81.935z M90.64,47.015l-3.834-4.445l0.848-1.284l3.835,4.396L90.64,47.015z"/>
<path d="M117.336,45.335l-14.749-1.087l0.074-1.728l17.477,1.284L111.51,56.35v24.497h-3.65v-1.728h2.359V55.658L117.336,45.335z"/>
<path d="M77.378,128.69h27.136c1.751,0,2.722,0.63,2.918,1.888c0,2.307-0.39,4.404-1.167,6.291c-0.973,0.628-1.557,0.42-1.751-0.629
	c1.362-3.774,1.46-5.662,0.292-5.662H77.962c-1.168,0-1.751,0.629-1.751,1.888v4.403c-0.583,0.841-1.167,0.841-1.75,0v-5.032
	C74.461,129.739,75.432,128.69,77.378,128.69z M90.509,110.446l1.751,3.146h14.297c0.777,0.629,0.777,1.259,0,1.888H75.628
	c-0.779-0.629-0.779-1.259,0-1.888h14.589l-1.458-2.517C88.952,109.817,89.536,109.608,90.509,110.446z M78.545,133.409h24.51
	c0.777,0.629,0.777,1.259,0,1.888H91.968v8.808c0,2.517-1.459,3.563-4.376,3.146c-1.558-0.212-3.502-0.84-5.836-1.889
	c-0.583-1.257-0.292-1.886,0.875-1.886c5.446,2.515,7.974,2.618,7.586,0.314v-8.493H78.545
	C77.766,134.668,77.766,134.038,78.545,133.409z M82.047,117.996h18.091c2.138,0,3.111,1.05,2.917,3.146v1.888
	c0.194,2.308-0.779,3.357-2.917,3.146H82.047c-1.947,0.212-2.918-0.838-2.918-3.146v-1.888
	C79.129,119.046,80.101,117.996,82.047,117.996z M99.554,119.883H82.63c-1.167,0-1.75,0.63-1.75,1.888v0.629
	c0,1.471,0.584,2.099,1.75,1.888h16.924c1.361,0.211,1.944-0.417,1.75-1.888v-0.943C101.499,120.41,100.915,119.883,99.554,119.883z
	"/>
<path d="M114.727,128.69h27.136c1.75,0,2.722,0.63,2.918,1.888c0,2.307-0.39,4.404-1.167,6.291c-0.973,0.628-1.557,0.42-1.75-0.629
	c1.361-3.774,1.459-5.662,0.292-5.662h-26.844c-1.167,0-1.75,0.629-1.75,1.888v4.403c-0.584,0.841-1.168,0.841-1.751,0v-5.032
	C111.81,129.739,112.78,128.69,114.727,128.69z M127.858,110.446l1.75,3.146h14.297c0.778,0.629,0.778,1.259,0,1.888h-30.929
	c-0.779-0.629-0.779-1.259,0-1.888h14.589l-1.459-2.517C126.301,109.817,126.885,109.608,127.858,110.446z M115.894,133.409h24.51
	c0.778,0.629,0.778,1.259,0,1.888h-11.088v8.808c0,2.517-1.458,3.563-4.376,3.146c-1.558-0.212-3.502-0.84-5.836-1.889
	c-0.584-1.257-0.292-1.886,0.875-1.886c5.446,2.515,7.974,2.618,7.586,0.314v-8.493h-11.672
	C115.115,134.668,115.115,134.038,115.894,133.409z M119.396,117.996h18.09c2.138,0,3.111,1.05,2.917,3.146v1.888
	c0.194,2.308-0.779,3.357-2.917,3.146h-18.09c-1.947,0.212-2.918-0.838-2.918-3.146v-1.888
	C116.478,119.046,117.449,117.996,119.396,117.996z M136.903,119.883h-16.923c-1.167,0-1.751,0.63-1.751,1.888v0.629
	c0,1.471,0.584,2.099,1.751,1.888h16.923c1.361,0.211,1.945-0.417,1.751-1.888v-0.943
	C138.848,120.41,138.264,119.883,136.903,119.883z"/>
<path d="M150.617,112.963h29.178c0.778,0.629,0.778,1.258,0,1.888h-13.422v12.582h12.838c0.778,0.629,0.778,1.258,0,1.888h-12.838
	v15.099h14.589c1.167,0.629,1.167,1.257,0,1.888H149.45c-0.78-0.631-0.78-1.259,0-1.888h15.172V129.32H151.2
	c-0.78-0.63-0.78-1.259,0-1.888h13.422v-12.582h-14.005C149.837,114.221,149.837,113.592,150.617,112.963z M171.042,131.837
	c3.111,2.936,5.64,5.767,7.586,8.491c0.194,1.26-0.292,1.677-1.459,1.26c-1.75-2.306-4.281-5.137-7.585-8.493
	C169.387,131.837,169.874,131.418,171.042,131.837z"/>
<path d="M213.059,122.085c-0.389,8.808-1.363,16.568-2.917,23.276h8.753c0.971,0.629,0.971,1.26,0,1.889h-32.096
	c-0.78-0.629-0.78-1.26,0-1.889h21.592c1.554-6.708,2.527-14.469,2.917-23.276C211.695,121.039,212.279,121.039,213.059,122.085z
	 M202.555,111.392c0.971,2.936,1.652,5.242,2.042,6.919h14.297c0.971,0.629,0.971,1.258,0,1.888h-31.513
	c-0.779-0.419-0.779-1.048,0-1.888h15.173c-0.39-2.096-0.973-4.193-1.751-6.291C200.998,110.553,201.582,110.344,202.555,111.392z
	 M193.217,122.714c2.138,8.179,3.501,15.311,4.085,21.391c-0.584,1.257-1.168,1.257-1.751,0c-0.78-6.501-2.141-13.42-4.085-20.761
	C191.661,122.085,192.244,121.877,193.217,122.714z"/>
<path d="M225.898,111.392h25.385c3.501,0.211,4.472,1.257,2.917,3.146c-3.501,3.145-7.685,6.188-12.546,9.121
	c-0.973,0.629-1.071,1.258-0.292,1.887c2.918,2.938,4.571,6.188,4.96,9.752c0.584,7.129-2.042,11.01-7.877,11.639
	c-2.141,0.208-4.184-0.421-6.128-1.888c-0.584-1.258-0.292-1.889,0.876-1.889c1.554,1.26,3.111,1.889,4.668,1.889
	c5.056-0.212,7.294-3.46,6.711-9.751c-0.389-3.355-2.042-6.291-4.96-8.808c-1.363-1.259-0.973-2.726,1.167-4.404
	c4.085-2.517,7.78-5.137,11.088-7.864c0.971-0.629,0.388-0.943-1.75-0.943h-24.218C225.118,112.648,225.118,112.02,225.898,111.392z
	"/>
<path d="M275.465,141.298h-3.864v0.706c0,0.691,0.051,1.392,0.148,2.102h-1.691c0.1-0.691,0.148-1.392,0.148-2.102v-13.627
	c0-0.745-0.049-1.401-0.148-1.969c0.626,0.114,1.189,0.173,1.691,0.173h3.444c0.601,0,1.197-0.059,1.789-0.173
	c-0.098,0.62-0.147,1.277-0.147,1.969v12.402c0,0.764,0.05,1.517,0.147,2.262h-1.665C275.432,142.57,275.481,141.99,275.465,141.298
	z M275.465,139.928v-11.989h-3.888v11.989H275.465z M280.217,126.768l2.271,0.599c0.123,0.035,0.193,0.08,0.21,0.133
	c0,0.062-0.062,0.128-0.185,0.199c-0.371,0.213-0.548,0.501-0.531,0.865c-0.099,2.582-0.325,6.007-0.679,10.273
	c2.058-0.453,4.081-0.977,6.072-1.57v-11.617c0-0.035-0.017-0.244-0.049-0.625c-0.042-0.604-0.078-1.149-0.111-1.637l1.975,0.279
	c0.206,0.018,0.317,0.062,0.334,0.133s-0.062,0.178-0.234,0.319c-0.289,0.407-0.457,1.003-0.507,1.783v19.428
	c0,0.852,0.055,1.831,0.161,2.941h-1.729c0.107-1.092,0.16-2.071,0.16-2.941v-6.627c-2.649,0.728-5.109,1.544-7.381,2.449
	c-0.255-0.578-0.568-1.118-0.938-1.624c0.502-0.151,0.798-0.753,0.889-1.81c0.28-2.883,0.42-5.833,0.42-8.849
	C280.365,128.053,280.316,127.353,280.217,126.768z"/>
<path d="M305.83,125.729v1.224h6.948c0.643-0.018,1.318-0.071,2.025-0.159v1.743c-0.758-0.088-1.432-0.142-2.025-0.16h-4.986
	c2.395,2.875,5.379,4.472,8.949,4.791c-0.725,0.657-1.143,1.304-1.26,1.942c-4.277-1.543-7.447-3.787-9.503-6.733h-0.148v3.247
	c0.016,0.577,0.065,1.313,0.148,2.209h-1.716c0.082-0.843,0.131-1.578,0.147-2.209v-3.193c-2.813,3.273-6.057,5.674-9.727,7.199
	c-0.32-0.674-0.827-1.238-1.519-1.69c3.35-0.62,6.473-2.475,9.369-5.563h-5.678c-0.609,0.019-1.301,0.072-2.074,0.16v-1.743
	c0.773,0.088,1.465,0.142,2.074,0.159h7.554v-1.356c-0.017-0.657-0.065-1.43-0.147-2.315l1.889,0.266
	c0.106,0.035,0.16,0.093,0.16,0.173c0,0.089-0.07,0.205-0.21,0.347C305.921,124.218,305.83,124.771,305.83,125.729z
	 M296.622,140.034h7.985c-0.017-0.541-0.065-1.149-0.147-1.823c1.415-0.284,2.645-0.944,3.689-1.982h-8.639
	c-0.544,0.019-1.228,0.071-2.05,0.159v-1.743c0.757,0.089,1.439,0.142,2.05,0.16h9.824c0.725-0.019,1.527-0.071,2.406-0.16
	c-1.463,1.748-3.369,3.256-5.714,4.524v0.865h7.159c0.617-0.019,1.287-0.071,2.012-0.16v1.743c-0.707-0.088-1.379-0.141-2.012-0.159
	h-7.159v4.059c0.033,1.216-0.201,1.961-0.703,2.235c-0.444,0.346-1.593,0.527-3.444,0.546c-0.049-0.817-0.275-1.544-0.679-2.183
	c1.186,0.222,2.012,0.333,2.48,0.333c0.116,0,0.223-0.009,0.321-0.027c0.436-0.053,0.638-0.337,0.604-0.852v-4.111h-7.985
	c-0.609,0.019-1.301,0.071-2.074,0.159v-1.743C295.272,139.963,295.963,140.016,296.622,140.034z"/>
<path d="M318.89,145.33c3.473-1.615,6.492-5.003,9.059-10.166h-6.344c-0.527-0.019-1.168,0.035-1.926,0.159v-1.743
	c0.707,0.125,1.334,0.178,1.877,0.16h7.678v-4.352h-5.529c-0.561-0.019-1.17,0.035-1.828,0.16v-1.744
	c0.625,0.125,1.205,0.179,1.74,0.16h5.617v-2.755c0.016-0.833-0.033-1.623-0.148-2.368l1.912,0.279
	c0.223,0.019,0.334,0.054,0.334,0.106c0.018,0.054-0.057,0.133-0.223,0.239c-0.287,0.134-0.424,0.732-0.406,1.797v2.701h5.43
	c0.512,0.019,1.129-0.035,1.854-0.16v1.744c-0.709-0.125-1.326-0.179-1.854-0.16h-5.43v4.352h7.863
	c0.469,0.018,1.041-0.035,1.715-0.16v1.743c-0.674-0.124-1.246-0.178-1.715-0.159h-6.58c1.736,4.471,4.863,7.713,9.381,9.727
	c-0.789,0.364-1.32,0.884-1.592,1.558c-4.428-2.909-7.451-6.516-9.072-10.818v10.459c-0.018,0.932,0.031,1.748,0.148,2.448h-1.766
	c0.115-0.816,0.164-1.623,0.148-2.422v-10.3c-2.592,4.817-5.48,8.459-8.666,10.925C320.196,146.049,319.638,145.578,318.89,145.33z"
	/>
<path d="M343.417,147.539c3.184-3.167,4.719-8.455,4.604-15.861l-1.926,0.159c-0.42,0.035-1.111,0.139-2.074,0.307
	c-0.049,0.018-0.082,0.026-0.098,0.026l-0.123-1.916c0.855,0.098,1.521,0.133,1.998,0.106l2.223-0.106
	c0-1.89-0.016-3.295-0.049-4.219c-0.033-1.02-0.104-1.947-0.211-2.781l2.1,0.213c0.205,0.019,0.316,0.065,0.332,0.14
	c0.018,0.075-0.049,0.185-0.197,0.326c-0.205,0.187-0.332,0.386-0.383,0.599c-0.049,0.187-0.082,0.594-0.098,1.225
	c0,0.258-0.008,0.62-0.025,1.091c-0.016,1.438-0.025,2.547-0.025,3.327l2.803-0.213c0.305-0.035,0.926-0.12,1.865-0.253
	c-0.084,0.816-0.141,1.57-0.174,2.262l-0.223,11.937c-0.016,0.106-0.025,0.205-0.025,0.293c0,0.896,0.742,1.362,2.223,1.397
	c0.535,0.034,1.539,0.062,3.012,0.079c1.531,0,2.684-0.008,3.457-0.026c1.266-0.019,2.033-0.218,2.295-0.599
	c0.355-0.328,0.561-1.246,0.617-2.755c0.635,0.444,1.23,0.692,1.791,0.745c-0.338,1.722-0.75,2.83-1.234,3.327
	c-0.445,0.54-1.289,0.83-2.531,0.865c-0.855,0.034-1.938,0.053-3.246,0.053s-2.848-0.019-4.617-0.053
	c-2.221,0.018-3.275-0.919-3.16-2.808l0.197-13.055l-3.084,0.227c0.105,6.954-1.182,12.477-3.865,16.566
	C344.905,147.854,344.19,147.646,343.417,147.539z M356.081,141.924c0.082-1.038,0.131-1.845,0.148-2.422v-10.938
	c-0.018-0.487-0.066-1.232-0.148-2.235c0.945,0.098,1.654,0.154,2.123,0.173h3.74c0.42,0,1.238-0.058,2.457-0.173
	c-0.084,1.073-0.133,1.876-0.148,2.408v10.792c0.016,0.524,0.064,1.322,0.148,2.396c-1.111-0.106-1.93-0.16-2.457-0.16h-3.406
	C358.185,141.764,357.364,141.817,356.081,141.924z M357.649,127.858v5.31h5.184v-5.31H357.649z M357.649,134.485v5.908h5.184
	v-5.908H357.649z"/>
<path d="M142.972,75.977h-4.165v0.705c0,0.692,0.053,1.393,0.16,2.103h-1.823c0.106-0.691,0.16-1.392,0.16-2.103V63.056
	c0-0.745-0.053-1.402-0.16-1.969c0.674,0.114,1.281,0.173,1.823,0.173h3.713c0.647,0,1.291-0.059,1.929-0.173
	c-0.106,0.62-0.16,1.277-0.16,1.969v12.402c0,0.764,0.053,1.517,0.16,2.262h-1.796C142.936,77.249,142.989,76.669,142.972,75.977z
	 M142.972,74.606V62.617h-4.191v11.989H142.972z M148.095,61.446l2.449,0.599c0.133,0.035,0.208,0.08,0.226,0.133
	c0,0.062-0.066,0.128-0.2,0.199c-0.399,0.213-0.589,0.501-0.572,0.865c-0.106,2.582-0.35,6.007-0.731,10.272
	c2.218-0.452,4.4-0.976,6.547-1.569V60.328c0-0.035-0.018-0.244-0.053-0.625c-0.044-0.604-0.084-1.149-0.12-1.637l2.129,0.279
	c0.222,0.018,0.342,0.063,0.359,0.133c0.017,0.071-0.067,0.178-0.253,0.319c-0.311,0.407-0.493,1.003-0.546,1.783v19.428
	c0,0.852,0.058,1.831,0.173,2.94h-1.863c0.116-1.091,0.173-2.07,0.173-2.94v-6.627c-2.857,0.728-5.509,1.544-7.958,2.448
	c-0.275-0.577-0.612-1.117-1.011-1.623c0.541-0.151,0.861-0.754,0.958-1.81c0.302-2.883,0.452-5.833,0.452-8.85
	C148.254,62.731,148.201,62.031,148.095,61.446z"/>
<path d="M164.688,62.724h5.203v-2.169c0-1.02-0.053-1.885-0.16-2.596l2.182,0.333c0.089,0.019,0.133,0.054,0.133,0.106
	c0,0.054-0.036,0.116-0.106,0.187c-0.346,0.327-0.519,0.838-0.519,1.53v2.608h6.573v-2.143c0-1.003-0.057-1.858-0.173-2.568
	l2.156,0.306c0.106,0.027,0.16,0.072,0.16,0.134c0,0.035-0.036,0.089-0.106,0.159c-0.363,0.346-0.537,1.064-0.519,2.156v1.956h5.27
	c0.976,0,1.703-0.054,2.182-0.16v1.69c-0.568-0.106-1.295-0.16-2.182-0.16h-5.27v1.064c0,0.852,0.058,1.597,0.173,2.235h-1.863
	c0.116-0.532,0.173-1.277,0.173-2.235v-1.064h-6.573v1.118c0,0.887,0.053,1.642,0.16,2.262h-1.85c0.106-0.585,0.16-1.339,0.16-2.262
	v-1.118h-5.203c-1.029,0-1.766,0.054-2.209,0.16v-1.69C162.994,62.67,163.73,62.724,164.688,62.724z M165.78,68.618
	c0.585,0.106,1.468,0.16,2.648,0.16h13.107c1.109,0,2-0.054,2.675-0.16c-0.116,0.674-0.173,1.618-0.173,2.834v9.288
	c0,0.87,0.057,1.518,0.173,1.943h-1.863c0.115-0.514,0.173-1.152,0.173-1.916h-15.103c0,0.949,0.053,1.711,0.16,2.288h-1.796
	c0.106-0.594,0.16-1.349,0.16-2.262v-9.314C165.939,70.388,165.886,69.435,165.78,68.618z M167.47,70.135v4.006h6.653v-4.006H167.47
	z M174.123,79.463v-4.005h-6.653v4.005H174.123z M175.587,74.141h6.933v-4.006h-6.933V74.141z M175.587,75.458v4.005h6.933v-4.005
	H175.587z"/>
<path d="M189.785,70.734c3.983-0.072,7.674-1.113,11.071-3.128c-1.269-0.949-2.578-2.163-3.926-3.646l1.477-1.038
	c0.941,1.393,2.173,2.616,3.699,3.673c1.712-1.27,3.194-2.733,4.445-4.392h-9.102c-1.304,1.916-2.675,3.638-4.112,5.163
	c-0.55-0.461-1.242-0.807-2.076-1.038c2.927-1.871,5.119-4.724,6.573-8.556l2.036,0.918c0.204,0.098,0.306,0.191,0.306,0.279
	c-0.018,0.106-0.137,0.178-0.359,0.213c-0.417,0.071-0.714,0.253-0.892,0.546c-0.204,0.327-0.443,0.7-0.719,1.117h8.729
	c0.834,0,1.77-0.053,2.808-0.159c-1.952,2.76-4.063,5.048-6.334,6.866c3.114,1.765,6.84,2.728,11.178,2.888
	c-0.728,0.559-1.162,1.251-1.304,2.076c-4.488-0.914-8.188-2.223-11.098-3.926c-2.848,1.774-6.524,3.162-11.031,4.165
	C191.014,72.064,190.557,71.391,189.785,70.734z M196.745,75.538l1.61,1.251c0.16,0.124,0.222,0.218,0.187,0.279
	c-0.018,0.071-0.137,0.124-0.359,0.159c-0.47,0.019-0.896,0.245-1.277,0.679c-1.145,1.216-2.679,2.56-4.604,4.032
	c-0.417-0.559-1.007-1.038-1.77-1.438C193.032,79.498,195.104,77.845,196.745,75.538z M202.732,72.291v1.038h5.296
	c0.665,0,1.397-0.054,2.195-0.16v1.69c-0.852-0.134-1.574-0.191-2.169-0.173h-5.323v6.547c0.036,0.886-0.208,1.441-0.732,1.663
	c-0.452,0.258-1.659,0.412-3.619,0.466c0-0.745-0.24-1.525-0.719-2.342c1.101,0.247,1.92,0.372,2.462,0.372
	c0.15,0,0.275-0.008,0.373-0.026c0.497-0.071,0.736-0.386,0.719-0.945v-5.734H195.6c-0.603,0-1.331,0.058-2.182,0.173v-1.69
	c0.745,0.106,1.473,0.16,2.182,0.16h5.616v-1.251c0-0.604-0.058-1.339-0.173-2.209l2.129,0.266c0.16,0.045,0.252,0.102,0.279,0.174
	c0,0.071-0.076,0.159-0.226,0.266C202.896,70.813,202.732,71.386,202.732,72.291z M204.649,77.147l1.064-1.396
	c2.12,1.33,4.209,2.848,6.268,4.551l-1.171,1.45C209.133,80.137,207.08,78.604,204.649,77.147z"/>
<path d="M346.175,76.993h-4.164v0.705c0,0.692,0.053,1.393,0.158,2.103h-1.822c0.107-0.691,0.16-1.393,0.16-2.103V64.072
	c0-0.745-0.053-1.402-0.16-1.97c0.674,0.115,1.281,0.173,1.822,0.173h3.713c0.648,0,1.291-0.058,1.93-0.173
	c-0.105,0.621-0.16,1.277-0.16,1.97v12.402c0,0.763,0.055,1.517,0.16,2.262h-1.797C346.14,78.266,346.192,77.686,346.175,76.993z
	 M346.175,75.623v-11.99h-4.191v11.99H346.175z M351.298,62.462l2.449,0.599c0.133,0.035,0.209,0.08,0.227,0.134
	c0,0.062-0.066,0.128-0.201,0.199c-0.398,0.213-0.588,0.501-0.572,0.865c-0.105,2.581-0.35,6.006-0.73,10.272
	c2.217-0.452,4.4-0.977,6.547-1.57V61.345c0-0.035-0.018-0.245-0.053-0.626c-0.045-0.604-0.084-1.147-0.121-1.637l2.129,0.279
	c0.223,0.019,0.342,0.063,0.359,0.134c0.018,0.071-0.066,0.178-0.252,0.319c-0.311,0.407-0.492,1.003-0.547,1.783v19.428
	c0,0.852,0.059,1.831,0.174,2.94h-1.863c0.115-1.091,0.174-2.07,0.174-2.94v-6.627c-2.857,0.727-5.51,1.544-7.957,2.448
	c-0.275-0.577-0.613-1.117-1.012-1.623c0.541-0.151,0.859-0.754,0.957-1.81c0.303-2.883,0.453-5.834,0.453-8.85
	C351.458,63.748,351.405,63.048,351.298,62.462z"/>
<path d="M368.638,75.051h8.408v-4.245h-5.521c-0.709,0-1.504,0.053-2.381,0.159v-1.743c0.914,0.106,1.707,0.16,2.381,0.16h5.521
	v-4.006h-7.105c-0.762,0-1.543,0.059-2.342,0.174v-1.757c0.781,0.114,1.561,0.173,2.342,0.173h7.105v-2.262
	c0-0.817-0.053-1.735-0.158-2.755l2.021,0.266c0.23,0.019,0.346,0.067,0.346,0.146c0.018,0.054-0.078,0.179-0.291,0.373
	c-0.24,0.098-0.352,0.753-0.334,1.97v2.262h7.119c0.746,0,1.518-0.059,2.316-0.173v1.757c-0.799-0.115-1.57-0.174-2.316-0.174
	h-7.119v4.006h5.775c0.861,0,1.717-0.054,2.568-0.16v1.743c-0.932-0.106-1.787-0.159-2.568-0.159h-5.775v4.245h8.756
	c0.922,0,1.775-0.054,2.555-0.16v1.743c-0.887-0.106-1.738-0.159-2.555-0.159h-8.756v5.043c0,0.904,0.055,1.831,0.16,2.781h-1.902
	c0.105-0.932,0.158-1.858,0.158-2.781v-5.043h-8.408c-0.826,0-1.717,0.053-2.676,0.159v-1.743
	C366.903,74.997,367.794,75.051,368.638,75.051z"/>
<path d="M393.056,67.838l0.891-1.237c1.295,0.78,2.705,1.708,4.232,2.781l-0.986,1.317
	C395.774,69.573,394.396,68.618,393.056,67.838z M393.628,81.89c1.303-1.836,2.656-4.878,4.059-9.128
	c0.381,0.764,0.754,1.264,1.117,1.504c-1.367,3.38-2.586,6.334-3.66,8.862L393.628,81.89z M394.571,60.998l0.959-1.237
	c1.162,0.799,2.488,1.837,3.979,3.114l-1.012,1.33C396.972,62.769,395.663,61.698,394.571,60.998z M416.487,70.153
	c-0.088,1.012-0.141,1.81-0.158,2.396v8.477c0.158,1.615-1.141,2.43-3.9,2.448c-0.096-0.674-0.406-1.299-0.93-1.876
	c0.807,0.114,1.445,0.173,1.916,0.173c0.391,0,0.662-0.04,0.811-0.12c0.4-0.106,0.592-0.54,0.572-1.304v-8.676h-3.113
	c-0.107,1.162-0.221,2.115-0.346,2.86c0.744,0.692,1.727,1.703,2.939,3.034c-0.486,0.381-0.895,0.753-1.223,1.118
	c-0.453-0.711-1.154-1.549-2.104-2.516c-0.398,1.438-0.998,2.781-1.797,4.032c-0.381-0.213-0.936-0.413-1.662-0.599
	c1.668-2.084,2.559-4.729,2.674-7.931h-3.686c-0.053,0.604-0.133,1.216-0.24,1.836c0.711,0.541,1.664,1.365,2.861,2.475
	c-0.328,0.293-0.682,0.7-1.064,1.225c-0.621-0.764-1.33-1.455-2.129-2.076c-0.453,1.313-1.131,2.733-2.035,4.259
	c-0.551-0.381-1.123-0.674-1.717-0.879c1.686-1.668,2.631-3.946,2.834-6.839h-3.168v9.674c0.018,0.604,0.072,1.442,0.16,2.515
	h-1.797c0.09-0.984,0.143-1.823,0.16-2.515v-8.689c-0.018-0.639-0.07-1.472-0.16-2.502c1.092,0.088,1.984,0.142,2.676,0.16h2.234
	l0.055-2.568h-3.82c-0.541,0-1.277,0.058-2.209,0.173v-1.69c0.896,0.089,1.633,0.142,2.209,0.16h14.039
	c0.658-0.019,1.438-0.071,2.342-0.16v1.69c-1.02-0.099-1.799-0.154-2.342-0.173h-3.434l-0.078,2.568h1.822
	C414.284,70.295,415.222,70.241,416.487,70.153z M406.269,61.345v0.679h4.391v-0.972c-0.016-0.639-0.074-1.411-0.172-2.315
	l2.129,0.293c0.16,0.036,0.238,0.071,0.238,0.106c0,0.053-0.078,0.146-0.238,0.279c-0.311,0.159-0.455,0.776-0.439,1.85v0.759h1.969
	c0.561,0,1.35-0.054,2.369-0.16v1.69c-1.055-0.106-1.844-0.16-2.369-0.16h-1.969c0.018,0.577,0.076,1.272,0.174,2.089h-1.863
	c0.098-0.833,0.156-1.53,0.172-2.089h-4.391c0.018,0.559,0.07,1.277,0.16,2.156h-1.85c0.088-0.95,0.143-1.669,0.16-2.156h-2.502
	c-0.383,0-1.057,0.054-2.023,0.16v-1.69c0.834,0.088,1.5,0.142,1.996,0.16h2.529v-0.892c-0.018-0.674-0.072-1.446-0.16-2.315
	l2.129,0.266c0.143,0.019,0.223,0.054,0.238,0.106c0,0.063-0.061,0.146-0.186,0.253C406.415,59.691,406.251,60.325,406.269,61.345z
	 M410.274,70.313l0.08-2.568h-3.74l-0.053,2.568H410.274z"/>
<path d="M249.179,41.66c0.036-0.295,0.202-0.499,0.498-0.609c0.813-0.295,1.644-0.48,2.494-0.555
	c1.367-0.147,2.752-0.202,4.157-0.167c0.332,0,0.683,0,1.053,0c0.812,0.111,1.274,0.574,1.385,1.386
	c0.074,4.914,0.147,9.829,0.222,14.742c0.258,9.791,0.388,19.581,0.388,29.372c-0.111,0.887-0.628,1.329-1.551,1.329
	c-0.776-0.11-1.201-0.555-1.275-1.329c-0.186-5.063-0.296-10.16-0.333-15.296c-1.552,0.147-3.085,0.074-4.599-0.222
	c-0.186,5.395-0.721,10.731-1.608,16.015c-0.148,0.518-0.48,0.757-0.997,0.722c-0.629-0.074-0.979-0.407-1.053-0.998
	c0-5.984,0.202-11.987,0.609-18.011c0.073-1.515,0.167-3.028,0.277-4.544c0.073-2.808,0.129-5.615,0.167-8.424
	c-0.038-4.212,0.24-8.423,0.831-12.635l-0.167-0.112C249.345,42.214,249.179,41.993,249.179,41.66z M252.005,53.575
	c1.367-0.185,2.734-0.185,4.101,0l-0.11-10.419c-1.627,0.074-3.214-0.036-4.767-0.333C251.783,46.408,252.042,49.992,252.005,53.575
	z M251.672,68.206c1.477-0.258,2.974-0.37,4.489-0.333c-0.075-3.99-0.093-7.999-0.056-12.026c-1.367,0.186-2.734,0.186-4.101,0
	l-0.222,8.424L251.672,68.206z M270.237,38.612c0.48,0.037,0.776,0.277,0.887,0.72c0.518,5.063,0.739,10.105,0.666,15.129
	c1.515-3.99,3.121-7.98,4.821-11.971c0.258-0.517,0.665-0.683,1.219-0.498c0.628,0.296,0.942,0.775,0.942,1.44
	c-0.629,3.99-1.885,7.759-3.769,11.306c1.588,0.036,3.195,0.11,4.821,0.222c0.738,0.147,1.108,0.609,1.108,1.385
	c-0.111,0.629-0.48,0.942-1.108,0.942c-2.697,0-5.376-0.056-8.035-0.166c-0.038,1.958-0.02,3.897,0.055,5.819
	c0,1.477,0.036,2.936,0.111,4.378c3.177-0.075,6.354-0.075,9.532,0c0.332,0.036,0.646,0.147,0.942,0.332
	c0.295,0.297,0.479,0.646,0.554,1.054c-0.038,0.996-0.536,1.57-1.496,1.716c-3.141,0.333-6.263,0.444-9.366,0.333
	c0.111,2.846,0.167,5.672,0.167,8.479c-0.038,2.4-0.186,4.82-0.444,7.259c-0.185,0.924-0.739,1.386-1.662,1.386
	c-0.776-0.109-1.22-0.572-1.33-1.386c-0.222-2.105-0.314-4.193-0.277-6.261c0-3.215,0.111-6.429,0.333-9.644
	c-2.809-0.184-5.597-0.498-8.369-0.941c-0.443-0.073-0.647-0.333-0.609-0.775c0.073-0.48,0.351-0.776,0.831-0.887
	c2.734-0.185,5.486-0.369,8.258-0.556l0.166-4.487v-5.93l-6.316-0.167c-0.593-0.036-0.888-0.351-0.888-0.942
	c0.074-0.479,0.37-0.775,0.888-0.886c2.068-0.111,4.155-0.203,6.262-0.277c-0.111-5.136,0.055-10.271,0.498-15.407
	C269.665,38.927,269.868,38.686,270.237,38.612z M263.976,41.938c0.628-0.074,1.07,0.185,1.33,0.776
	c0.738,2.734,1.366,5.468,1.885,8.202c0.073,0.554-0.038,1.053-0.334,1.496c-0.332,0.333-0.738,0.519-1.219,0.554
	c-0.997-0.035-1.57-0.572-1.717-1.606c-0.371-2.771-0.629-5.56-0.776-8.368C263.145,42.437,263.421,42.085,263.976,41.938z"/>
<path d="M299.887,41.272c-0.148-0.517,0.018-0.923,0.498-1.219c1.773-0.665,3.621-1.126,5.542-1.386
	c1.699-0.221,3.398-0.202,5.098,0.056c1.184,0.259,2.254,0.702,3.215,1.33c0.922,0.739,1.588,1.663,1.994,2.771
	c0.223,0.924,0.203,1.848-0.055,2.771c-0.443,1.368-1.09,2.605-1.939,3.713c-0.297,0.444-0.592,0.851-0.887,1.219
	c-0.666,0.813-1.201,1.682-1.607,2.605c-0.369,0.813-0.518,1.662-0.443,2.549c0.221,1.146,0.592,2.236,1.107,3.271
	c0.223,0.517,0.443,1.016,0.666,1.495c1.367,3.769,1.939,7.668,1.719,11.693c-0.111,1.996-0.48,3.936-1.109,5.82
	c-0.518,1.329-1.182,2.567-1.994,3.712c-0.703,0.887-1.553,1.607-2.549,2.161c-1.184,0.518-2.385,0.61-3.604,0.277
	c-1.219-0.443-2.271-1.146-3.158-2.105c-0.924-1.073-1.589-2.309-1.995-3.713c-0.111-0.369-0.056-0.738,0.166-1.109
	c0.222-0.294,0.518-0.518,0.887-0.665c0.739-0.222,1.293-0.019,1.662,0.61c0.369,0.85,0.813,1.627,1.331,2.327
	c0.368,0.48,0.812,0.85,1.33,1.109c0.813,0.442,1.605,0.461,2.383,0.055c0.479-0.333,0.867-0.738,1.164-1.219
	c0.404-0.666,0.756-1.367,1.053-2.106c0.443-1.145,0.738-2.327,0.887-3.546c0.184-1.404,0.275-2.828,0.275-4.269
	c0-2.955-0.553-5.8-1.662-8.534c-0.186-0.333-0.352-0.684-0.498-1.053c-0.406-0.851-0.758-1.736-1.053-2.66
	c-0.186-0.664-0.277-1.348-0.277-2.05c0-1.071,0.24-2.105,0.721-3.104c0.701-1.367,1.531-2.66,2.494-3.879
	c0.367-0.517,0.738-1.071,1.107-1.663c0.627-0.96,0.85-1.995,0.666-3.104c-0.443-0.776-1.092-1.311-1.939-1.607
	c-1.516-0.443-3.086-0.628-4.711-0.555c-1.811,0.038-3.584,0.222-5.32,0.555C300.496,41.938,300.107,41.752,299.887,41.272z"/>
</svg>
